<?xml version="1.0" standalone="no"?>
<!DOCTYPE svg PUBLIC "-//W3C//DTD SVG 20010904//EN"
 "http://www.w3.org/TR/2001/REC-SVG-20010904/DTD/svg10.dtd">
<svg version="1.0" xmlns="http://www.w3.org/2000/svg"
 width="800.000000pt" height="800.000000pt" viewBox="0 0 800.000000 800.000000"
 preserveAspectRatio="xMidYMid meet">
<metadata>
Created by potrace 1.11, written by Peter Selinger 2001-2013
</metadata>
<g transform="translate(0.000000,800.000000) scale(0.100000,-0.100000)"
fill="#000000" stroke="none">
<path d="M37 7003 c14 -27 33 -59 43 -73 9 -14 20 -32 24 -40 4 -8 12 -24 19
-35 7 -11 45 -76 85 -145 40 -69 77 -132 82 -140 5 -8 48 -82 95 -165 47 -82
90 -157 95 -165 17 -29 213 -365 231 -397 10 -17 29 -50 43 -72 15 -22 26 -45
26 -51 0 -5 5 -10 10 -10 6 0 10 -4 10 -9 0 -5 27 -55 60 -111 33 -56 60 -104
60 -106 0 -4 43 -77 78 -130 6 -10 15 -26 19 -34 3 -8 21 -39 40 -67 18 -29
30 -53 27 -53 -2 0 0 -6 6 -12 13 -15 54 -80 55 -88 0 -3 8 -16 17 -30 15 -24
71 -120 110 -190 21 -37 94 -161 115 -195 7 -11 16 -27 20 -35 4 -8 33 -59 65
-113 32 -54 58 -103 58 -108 0 -5 4 -9 9 -9 5 0 11 -8 15 -17 3 -10 13 -32 23
-48 35 -58 71 -120 91 -155 10 -19 39 -69 64 -110 25 -41 56 -95 70 -120 14
-25 48 -83 74 -128 27 -46 58 -100 70 -120 39 -68 167 -287 185 -317 11 -16
22 -37 26 -45 3 -8 21 -39 40 -68 18 -29 33 -54 33 -57 0 -4 40 -72 90 -155
41 -68 100 -175 100 -182 0 -4 5 -8 10 -8 6 0 10 -4 10 -9 0 -7 163 -292 221
-386 10 -16 22 -37 26 -45 4 -8 33 -59 65 -113 32 -53 58 -102 58 -107 0 -6 5
-10 10 -10 6 0 10 -4 10 -10 0 -5 29 -58 64 -117 35 -60 73 -124 84 -143 11
-19 68 -118 128 -220 59 -102 121 -210 138 -240 16 -30 33 -56 38 -58 4 -2 8
-8 8 -13 0 -5 30 -59 67 -121 37 -62 68 -115 68 -118 0 -3 9 -18 19 -35 31
-49 45 -72 72 -122 35 -64 42 -70 42 -36 0 15 0 44 1 63 0 19 1 42 1 50 0 8 1
220 4 470 2 250 5 590 6 755 l2 300 -534 935 c-294 514 -546 955 -560 980 -14
25 -120 211 -237 414 -116 203 -211 373 -211 378 0 4 -4 8 -10 8 -5 0 -10 5
-10 11 0 6 -10 25 -22 42 -13 18 -22 34 -22 37 1 3 -5 14 -12 25 -6 11 -91
160 -188 330 -96 171 -179 315 -183 320 -11 14 -63 112 -63 118 0 3 196 6 435
6 l434 -1 63 -106 c34 -59 70 -120 79 -137 9 -16 62 -108 118 -203 55 -96 101
-178 101 -183 0 -5 4 -9 9 -9 5 0 11 -8 15 -17 6 -19 23 -49 104 -186 29 -48
52 -92 52 -97 0 -6 5 -10 10 -10 6 0 10 -4 10 -10 0 -5 27 -55 60 -111 33 -55
60 -105 60 -110 0 -5 5 -9 10 -9 6 0 10 -5 10 -11 0 -8 92 -171 180 -319 5 -8
44 -76 86 -150 43 -74 85 -146 94 -160 10 -14 28 -45 42 -70 42 -75 59 -105
213 -370 81 -140 156 -268 165 -285 9 -16 31 -53 48 -81 18 -28 32 -56 32 -63
0 -6 5 -11 10 -11 6 0 10 -6 10 -14 0 -8 8 -24 19 -37 l18 -23 58 100 c32 54
65 110 74 124 8 14 16 27 16 30 0 3 9 19 19 35 34 53 43 70 45 80 1 6 8 17 15
25 7 8 16 22 20 30 3 8 15 29 26 45 11 17 23 37 27 45 4 8 33 59 65 113 32 55
58 101 58 103 0 2 15 27 33 56 19 29 37 60 41 68 4 8 12 24 19 35 7 11 41 70
76 130 34 61 105 182 157 270 51 88 101 176 111 195 9 19 21 40 26 45 6 8 103
174 189 325 79 138 149 259 198 340 31 52 59 102 63 110 4 8 17 32 29 52 24
38 147 252 161 278 4 8 25 44 46 80 l38 65 437 1 c240 1 436 0 436 -2 0 -12
-35 -74 -42 -74 -4 0 -8 -7 -8 -16 0 -9 -9 -27 -20 -41 -11 -14 -20 -32 -20
-39 0 -8 -4 -14 -10 -14 -5 0 -10 -4 -10 -9 0 -5 -32 -65 -71 -133 -40 -67
-85 -148 -102 -178 -17 -30 -41 -72 -54 -92 -13 -21 -23 -39 -23 -42 0 -2 -29
-54 -65 -115 -61 -106 -115 -201 -139 -246 -6 -11 -21 -35 -34 -53 -13 -17
-20 -32 -17 -32 4 0 -3 -12 -14 -26 -12 -15 -21 -33 -21 -40 0 -8 -4 -14 -9
-14 -5 0 -11 -8 -14 -17 -3 -10 -21 -44 -39 -75 -18 -31 -53 -91 -77 -134 -24
-43 -66 -116 -95 -163 -28 -47 -51 -89 -51 -93 0 -4 -6 -13 -12 -20 -7 -6 -13
-15 -13 -19 0 -6 -58 -111 -100 -179 -5 -8 -46 -80 -92 -160 -92 -162 -95
-167 -132 -230 -14 -25 -31 -56 -38 -70 -7 -14 -15 -27 -18 -30 -4 -4 -18 -28
-64 -115 -6 -11 -14 -22 -17 -25 -3 -3 -8 -12 -12 -20 -3 -8 -22 -42 -42 -75
-19 -33 -45 -79 -56 -103 -12 -23 -25 -42 -30 -42 -5 0 -9 -8 -9 -19 0 -10 -7
-24 -15 -31 -8 -7 -15 -16 -15 -19 0 -4 -71 -131 -158 -282 -86 -151 -164
-288 -172 -304 -8 -17 -21 -36 -27 -43 -7 -7 -13 -20 -13 -28 0 -8 -4 -14 -10
-14 -5 0 -10 -4 -10 -10 0 -5 -14 -33 -32 -62 l-31 -53 1 -165 c6 -881 13
-1494 16 -1497 2 -3 17 20 33 49 25 45 135 234 194 333 10 17 24 41 32 55 16
30 5 11 247 425 106 182 203 348 215 370 13 22 57 98 99 169 42 70 76 130 76
132 0 3 12 23 26 45 14 23 37 61 51 86 13 25 38 66 54 91 16 26 36 64 46 85
10 20 21 37 25 37 5 0 8 4 8 9 0 4 22 46 50 92 27 46 63 109 80 139 17 30 47
82 67 115 19 33 46 78 58 100 13 22 62 108 111 190 48 83 117 202 153 265 36
63 68 117 71 120 4 3 9 12 13 20 3 8 19 36 34 62 62 103 83 141 83 149 0 5 4
9 9 9 5 0 11 8 14 18 3 9 21 42 39 73 18 31 60 103 93 160 33 57 63 106 67
107 4 2 8 8 8 12 0 5 39 75 86 157 48 81 96 164 106 183 11 19 59 100 106 180
47 80 94 161 104 180 11 19 30 53 43 75 14 22 30 51 37 65 7 14 15 27 18 30
10 9 41 65 47 83 3 9 9 17 14 17 5 0 9 5 9 11 0 10 121 221 160 279 9 14 19
33 23 42 3 10 22 43 42 73 19 31 35 57 35 60 0 2 20 37 44 77 23 40 68 116 98
168 31 52 95 163 143 245 48 83 95 164 105 180 9 17 50 87 90 155 40 69 80
139 88 155 8 17 20 37 27 45 6 8 24 36 39 63 l27 47 -436 -2 c-239 -2 -435 -6
-435 -10 0 -4 -10 -4 -22 0 -24 8 -92 7 -115 -2 -7 -3 -13 -1 -13 4 0 5 -12 5
-27 1 -16 -5 -37 -5 -48 -1 -11 4 -24 5 -28 3 -5 -3 -219 -7 -475 -9 -1297
-11 -1290 -11 -1307 -28 -9 -8 -15 -18 -15 -21 0 -4 -39 -73 -111 -193 -9 -15
-27 -47 -41 -72 -34 -59 -296 -507 -319 -545 -10 -16 -23 -39 -29 -50 -5 -11
-21 -38 -34 -60 -14 -22 -46 -76 -71 -120 -25 -44 -50 -87 -55 -95 -34 -52
-130 -223 -130 -231 0 -5 -4 -9 -10 -9 -5 0 -12 -11 -16 -25 -3 -14 -10 -25
-14 -25 -4 0 -13 -12 -19 -27 -6 -16 -26 -53 -45 -83 -18 -30 -65 -110 -104
-178 -70 -122 -71 -123 -89 -103 -11 12 -31 42 -44 68 -14 27 -79 138 -143
248 -65 110 -126 214 -136 230 -9 17 -29 50 -44 75 -15 25 -29 53 -33 63 -3 9
-9 17 -14 17 -5 0 -9 5 -9 10 0 6 -17 39 -38 73 -43 72 -39 65 -134 227 -40
69 -77 132 -83 142 -5 9 -17 29 -26 45 -9 15 -44 74 -77 131 -34 57 -62 108
-62 113 0 5 -4 9 -10 9 -5 0 -10 4 -10 10 0 5 -37 71 -81 147 -45 76 -92 156
-105 178 -13 22 -28 46 -33 54 -7 11 -86 14 -432 17 -233 2 -640 6 -904 9
-264 3 -484 6 -490 6 -5 0 -23 0 -40 -1 -27 0 -167 0 -197 0 -7 0 -199 2 -425
5 l-413 5 27 -47z"/>
</g>
</svg>
